<svg fill="#000000" xmlns="http://www.w3.org/2000/svg"  viewBox="0 0 48 48" width="144px" height="144px"><path d="M 23.925781 3.0019531 A 1.50015 1.50015 0 0 0 22.976562 3.4042969 L 16.001953 9.9140625 L 9.7128906 9.015625 A 1.50015 1.50015 0 0 0 8.0078125 10.648438 L 8.9042969 19.621094 L 3.8300781 22.158203 A 1.50015 1.50015 0 0 0 3.2128906 24.271484 L 5.953125 28.837891 L 5.0097656 37.333984 A 1.50015 1.50015 0 0 0 6.5878906 38.998047 L 14.066406 38.560547 A 1.50015 1.50015 0 0 0 14.382812 38.515625 C 14.960528 40.40572 16.145346 41.9126 17.558594 42.933594 C 19.55286 44.37434 21.928143 45 24 45 C 26.071857 45 28.44714 44.37434 30.441406 42.933594 C 31.854654 41.9126 33.039472 40.40572 33.617188 38.515625 A 1.50015 1.50015 0 0 0 33.933594 38.560547 L 41.412109 38.998047 A 1.50015 1.50015 0 0 0 42.990234 37.333984 L 42.039062 28.775391 L 44.841797 23.169922 A 1.50015 1.50015 0 0 0 43.974609 21.076172 L 39.111328 19.457031 L 39.992188 10.648438 A 1.50015 1.50015 0 0 0 38.287109 9.015625 L 31.998047 9.9140625 L 25.023438 3.4042969 A 1.50015 1.50015 0 0 0 23.925781 3.0019531 z M 24 6.5527344 L 30.476562 12.595703 A 1.50015 1.50015 0 0 0 31.712891 12.984375 L 36.818359 12.255859 L 36.007812 20.351562 A 1.50015 1.50015 0 0 0 37.025391 21.923828 L 41.384766 23.376953 L 39.158203 27.830078 A 1.50015 1.50015 0 0 0 39.009766 28.666016 L 39.8125 35.898438 L 35.070312 35.623047 C 36.764479 34.988695 38 33.405712 38 31.5 C 38 29.209318 36.225191 27.364367 34 27.101562 L 34 24 C 34 21.066513 33.092207 18.338586 31.357422 16.308594 C 29.622636 14.278601 27.028779 13 24 13 C 20.971221 13 18.377364 14.278601 16.642578 16.308594 C 14.907793 18.338586 14 21.066513 14 24 L 14 27.101562 C 11.774809 27.364368 10 29.209318 10 31.5 C 10 33.405712 11.235521 34.988695 12.929688 35.623047 L 8.1875 35.898438 L 8.9902344 28.666016 A 1.50015 1.50015 0 0 0 8.7871094 27.728516 L 6.6191406 24.117188 L 11.169922 21.841797 A 1.50015 1.50015 0 0 0 11.992188 20.351562 L 11.181641 12.255859 L 16.287109 12.984375 A 1.50015 1.50015 0 0 0 17.523438 12.595703 L 24 6.5527344 z M 24 16 C 26.218221 16 27.87466 16.849555 29.078125 18.257812 C 30.28159 19.666071 31 21.686487 31 24 L 31 28.683594 A 1.50015 1.50015 0 0 0 33.003906 30.097656 C 33.19343 30.030055 33.350966 30 33.5 30 C 34.346499 30 35 30.653501 35 31.5 C 35 32.346499 34.346499 33 33.5 33 C 33.350966 33 33.19343 32.969954 33.003906 32.902344 A 1.50015 1.50015 0 0 0 31 34.316406 L 31 36 C 31 38.147037 30.064328 39.50445 28.683594 40.501953 C 27.30286 41.499457 25.428143 42 24 42 C 22.571857 42 20.69714 41.499457 19.316406 40.501953 C 17.935672 39.50445 17 38.147037 17 36 L 17 34.316406 A 1.50015 1.50015 0 0 0 14.996094 32.902344 C 14.80657 32.969945 14.649034 33 14.5 33 C 13.653501 33 13 32.346499 13 31.5 C 13 30.653501 13.653501 30 14.5 30 C 14.649034 30 14.80657 30.030056 14.996094 30.097656 A 1.50015 1.50015 0 0 0 17 28.683594 L 17 24 C 17 21.686487 17.71841 19.666071 18.921875 18.257812 C 20.12534 16.849555 21.781779 16 24 16 z M 20.529297 20.992188 A 1.50015 1.50015 0 0 0 19.890625 23.871094 C 21.398284 24.540989 22.65839 24.955078 24 24.955078 C 25.34161 24.955078 26.601716 24.540989 28.109375 23.871094 A 1.5004122 1.5004122 0 1 0 26.890625 21.128906 C 25.533284 21.732011 24.72589 21.955078 24 21.955078 C 23.27411 21.955078 22.466716 21.732011 21.109375 21.128906 A 1.50015 1.50015 0 0 0 20.529297 20.992188 z M 21.5 26 A 2.5 2.5 0 0 0 21.5 31 A 2.5 2.5 0 0 0 21.5 26 z M 26.5 26 A 2.5 2.5 0 0 0 26.5 31 A 2.5 2.5 0 0 0 26.5 26 z"/></svg>