<svg height="512pt" viewBox="0 0 512 512" width="512pt" xmlns="http://www.w3.org/2000/svg"><path d="m507.769531 435.695312-76.222656-184.015624c-.171875-3.9375-.585937-7.835938-1.230469-11.671876l46.683594-46.683593c5.855469-5.859375 5.855469-15.355469 0-21.210938l-56.800781-56.800781c-5.859375-5.859375-15.355469-5.859375-21.214844-.003906l-46.683594 46.679687c-5.230469-.875-10.570312-1.328125-15.980469-1.328125h-57.296874l-.003907-97.460937c0-16.882813-6.570312-32.753907-18.507812-44.6875-11.9375-11.9375-27.804688-18.511719-44.6875-18.511719-16.878907 0-32.75 6.574219-44.6875 18.511719-11.9375 11.933593-18.511719 27.804687-18.507813 44.683593l-.003906 97.464844h-97.460938c-30.414062 0-55.16015575 24.746094-55.16015575 55.164063l-.00390625 80.332031c0 30.417969 24.746094 55.164062 55.164062 55.164062h281.15625c5.585938 0 11.101563-.476562 16.492188-1.414062l53.027344 128.011719c5.640625 13.613281 16.242187 24.214843 29.855468 29.851562 6.804688 2.820313 13.957032 4.230469 21.109376 4.230469 7.152343 0 14.304687-1.410156 21.109374-4.230469 28.101563-11.640625 41.496094-43.972656 29.855469-72.074219zm-98.179687-288.566406 35.589844 35.589844-26.019532 26.023438c-4.171875-7.285157-9.339844-14.0625-15.433594-20.160157-6.097656-6.097656-12.875-11.261719-20.160156-15.433593zm-217.242188-107.40625c6.269532-6.269531 14.609375-9.722656 23.476563-9.722656 8.867187 0 17.207031 3.453125 23.476562 9.722656 6.269531 6.269532 9.722657 14.605469 9.722657 23.476563v49.265625h-66.398438l.003906-49.269532c-.003906-8.867187 3.449219-17.203124 9.71875-23.472656zm-9.722656 102.738282h66.398438v18.199218h-66.398438zm-127.460938 178.859374c-13.875 0-25.164062-11.289062-25.164062-25.164062v-80.332031c0-13.875 11.289062-25.164063 25.164062-25.164063h281.15625c17.449219 0 33.855469 6.792969 46.195313 19.132813 12.339844 12.339843 19.132813 28.746093 19.132813 46.199219 0 17.449218-6.792969 33.855468-19.132813 46.195312s-28.746094 19.132812-46.195313 19.132812zm411.269532 158.734376c-6.207032 2.574218-13.050782 2.574218-19.261719 0-6.210937-2.570313-11.046875-7.410157-13.617187-13.617188l-52.320313-126.308594c8.175781-4.378906 15.75-9.988281 22.492187-16.730468 6.460938-6.460938 11.871094-13.683594 16.164063-21.46875l60.164063 145.246093c5.308593 12.820313-.800782 27.570313-13.621094 32.878907zm0 0"/></svg>